<svg width="64" height="64" viewBox="0 0 64 64" fill="none" xmlns="http://www.w3.org/2000/svg">
<path d="M46.4 34.6667L42.6667 30.9333L48.2 25.3333L42.6667 19.8L46.4 16L52 21.6L57.5334 16L61.3334 19.8L55.7334 25.3333L61.3334 30.9333L57.5334 34.6667L52 29.1333L46.4 34.6667ZM24 32C21.0667 32 18.5556 30.9555 16.4667 28.8667C14.3778 26.7778 13.3334 24.2667 13.3334 21.3333C13.3334 18.4 14.3778 15.8889 16.4667 13.8C18.5556 11.7111 21.0667 10.6667 24 10.6667C26.9334 10.6667 29.4445 11.7111 31.5334 13.8C33.6222 15.8889 34.6667 18.4 34.6667 21.3333C34.6667 24.2667 33.6222 26.7778 31.5334 28.8667C29.4445 30.9555 26.9334 32 24 32ZM2.66669 53.3333V45.8667C2.66669 44.3555 3.05558 42.9667 3.83335 41.7C4.61113 40.4333 5.64446 39.4667 6.93335 38.8C9.68891 37.4222 12.4889 36.3889 15.3334 35.7C18.1778 35.0111 21.0667 34.6667 24 34.6667C26.9334 34.6667 29.8222 35.0111 32.6667 35.7C35.5111 36.3889 38.3111 37.4222 41.0667 38.8C42.3556 39.4667 43.3889 40.4333 44.1667 41.7C44.9445 42.9667 45.3334 44.3555 45.3334 45.8667V53.3333H2.66669ZM8.00002 48H40V45.8667C40 45.3778 39.8778 44.9333 39.6334 44.5333C39.3889 44.1333 39.0667 43.8222 38.6667 43.6C36.2667 42.4 33.8445 41.5 31.4 40.9C28.9556 40.3 26.4889 40 24 40C21.5111 40 19.0445 40.3 16.6 40.9C14.1556 41.5 11.7334 42.4 9.33335 43.6C8.93335 43.8222 8.61113 44.1333 8.36669 44.5333C8.12224 44.9333 8.00002 45.3778 8.00002 45.8667V48ZM24 26.6667C25.4667 26.6667 26.7222 26.1444 27.7667 25.1C28.8111 24.0555 29.3334 22.8 29.3334 21.3333C29.3334 19.8667 28.8111 18.6111 27.7667 17.5667C26.7222 16.5222 25.4667 16 24 16C22.5334 16 21.2778 16.5222 20.2334 17.5667C19.1889 18.6111 18.6667 19.8667 18.6667 21.3333C18.6667 22.8 19.1889 24.0555 20.2334 25.1C21.2778 26.1444 22.5334 26.6667 24 26.6667Z" fill="#FF4D4F"/>
</svg>
