<svg width="64" height="64" viewBox="0 0 64 64" fill="none" xmlns="http://www.w3.org/2000/svg">
<path d="M32 10.6667C20.5333 10.6667 11.3334 19.8667 11.3334 31.3333C11.3334 42.8 20.5333 52 32 52C43.4667 52 52.6667 42.8 52.6667 31.3333C52.6667 19.8667 43.4667 10.6667 32 10.6667ZM32 48C23.2 48 16 40.8 16 32C16 23.2 23.2 16 32 16C40.8 16 48 23.2 48 32C48 40.8 40.8 48 32 48ZM36.2667 24L32 28.2667L27.7334 24L24 27.7333L28.2667 32L24 36.2667L27.7334 40L32 35.7333L36.2667 40L40 36.2667L35.7334 32L40 27.7333L36.2667 24Z" fill="#FF4D4F"/>
</svg>

